<?xml version="1.0" standalone="no"?>
<svg xmlns:xlink="http://www.w3.org/1999/xlink" id="wave" style="transform:rotate(0deg); transition: 0.3s" viewBox="0 0 1440 490" version="1.1" xmlns="http://www.w3.org/2000/svg"><defs><linearGradient id="sw-gradient-0" x1="0" x2="0" y1="1" y2="0"><stop stop-color="rgba(62, 242.562, 243, 1)" offset="0%"/><stop stop-color="rgba(11, 89.097, 255, 1)" offset="100%"/></linearGradient></defs><path style="transform:translate(0, 0px); opacity:1" fill="url(#sw-gradient-0)" d="M0,294L20,310.3C40,327,80,359,120,326.7C160,294,200,196,240,163.3C280,131,320,163,360,179.7C400,196,440,196,480,212.3C520,229,560,261,600,269.5C640,278,680,261,720,285.8C760,310,800,376,840,375.7C880,376,920,310,960,236.8C1000,163,1040,82,1080,73.5C1120,65,1160,131,1200,196C1240,261,1280,327,1320,334.8C1360,343,1400,294,1440,269.5C1480,245,1520,245,1560,204.2C1600,163,1640,82,1680,57.2C1720,33,1760,65,1800,89.8C1840,114,1880,131,1920,163.3C1960,196,2000,245,2040,285.8C2080,327,2120,359,2160,383.8C2200,408,2240,425,2280,400.2C2320,376,2360,310,2400,277.7C2440,245,2480,245,2520,212.3C2560,180,2600,114,2640,130.7C2680,147,2720,245,2760,302.2C2800,359,2840,376,2860,383.8L2880,392L2880,490L2860,490C2840,490,2800,490,2760,490C2720,490,2680,490,2640,490C2600,490,2560,490,2520,490C2480,490,2440,490,2400,490C2360,490,2320,490,2280,490C2240,490,2200,490,2160,490C2120,490,2080,490,2040,490C2000,490,1960,490,1920,490C1880,490,1840,490,1800,490C1760,490,1720,490,1680,490C1640,490,1600,490,1560,490C1520,490,1480,490,1440,490C1400,490,1360,490,1320,490C1280,490,1240,490,1200,490C1160,490,1120,490,1080,490C1040,490,1000,490,960,490C920,490,880,490,840,490C800,490,760,490,720,490C680,490,640,490,600,490C560,490,520,490,480,490C440,490,400,490,360,490C320,490,280,490,240,490C200,490,160,490,120,490C80,490,40,490,20,490L0,490Z"/><defs><linearGradient id="sw-gradient-1" x1="0" x2="0" y1="1" y2="0"><stop stop-color="rgba(65.382, 62, 243, 1)" offset="0%"/><stop stop-color="rgba(148.907, 0, 186.642, 1)" offset="100%"/></linearGradient></defs><path style="transform:translate(0, 50px); opacity:0.9" fill="url(#sw-gradient-1)" d="M0,343L20,302.2C40,261,80,180,120,187.8C160,196,200,294,240,277.7C280,261,320,131,360,65.3C400,0,440,0,480,32.7C520,65,560,131,600,155.2C640,180,680,163,720,187.8C760,212,800,278,840,269.5C880,261,920,180,960,155.2C1000,131,1040,163,1080,220.5C1120,278,1160,359,1200,343C1240,327,1280,212,1320,163.3C1360,114,1400,131,1440,147C1480,163,1520,180,1560,212.3C1600,245,1640,294,1680,294C1720,294,1760,245,1800,236.8C1840,229,1880,261,1920,302.2C1960,343,2000,392,2040,416.5C2080,441,2120,441,2160,441C2200,441,2240,441,2280,441C2320,441,2360,441,2400,416.5C2440,392,2480,343,2520,285.8C2560,229,2600,163,2640,155.2C2680,147,2720,196,2760,228.7C2800,261,2840,278,2860,285.8L2880,294L2880,490L2860,490C2840,490,2800,490,2760,490C2720,490,2680,490,2640,490C2600,490,2560,490,2520,490C2480,490,2440,490,2400,490C2360,490,2320,490,2280,490C2240,490,2200,490,2160,490C2120,490,2080,490,2040,490C2000,490,1960,490,1920,490C1880,490,1840,490,1800,490C1760,490,1720,490,1680,490C1640,490,1600,490,1560,490C1520,490,1480,490,1440,490C1400,490,1360,490,1320,490C1280,490,1240,490,1200,490C1160,490,1120,490,1080,490C1040,490,1000,490,960,490C920,490,880,490,840,490C800,490,760,490,720,490C680,490,640,490,600,490C560,490,520,490,480,490C440,490,400,490,360,490C320,490,280,490,240,490C200,490,160,490,120,490C80,490,40,490,20,490L0,490Z"/></svg>