<svg id="ekMBmQ0HjTW1" xmlns="http://www.w3.org/2000/svg" xmlns:xlink="http://www.w3.org/1999/xlink" viewBox="0 0 786.29468 749.1971" shape-rendering="geometricPrecision" text-rendering="geometricPrecision"><ellipse rx="358" ry="40" transform="translate(428.295 670.89)" fill="#c8c3ff"/><path d="M812.69445,702.0311l6.17411,19.02315c0,0,29.736,30.72079,18.98128,39.04755s-34.884-35.56837-34.884-35.56837l-4.447-21.47613Z" transform="translate(-206.853-75.4014)" fill="#ffb8b8"/><path d="M755.64734,554.79169l9-3c0,0,14,4,16,18s17,85,17,85s6,3,2,8s20,50,20,50l-19,9c0,0-38-40-38-44s1-8,1-12-1-4,0-7c.667523-2.614175,1.003495-5.301948,1-8l-7-16Z" transform="translate(-206.853-75.4014)" fill="#e9a0f9"/><ellipse rx="90.4178" ry="184.489" transform="translate(90.4178 363.498)" fill="#20a200"/><path d="M296.44031,440.81268c4.51025-80.30664,13.59765-134.55127,13.689-135.08984l-1.97168-.334c-.09131.53907-9.19482,54.87061-13.7124,135.28077-4.16894,74.21386-5.1748,186.46679,13.71192,299.78613l1.97265-.32813c-18.85453-113.12694-17.85111-225.20995-13.68949-299.31493Z" transform="translate(-206.853-75.4014)" fill="#3f3d56"/><rect width="92.7252" height="2.00012" rx="0" ry="0" transform="matrix(.881659-.471888 0.471888 0.881659 89.478409 369.840137)" fill="#3f3d56"/><rect width="2.00012" height="92.7252" rx="0" ry="0" transform="matrix(.471652-.881785 0.881785 0.471652 3.176485 349.777328)" fill="#3f3d56"/><ellipse rx="123.73" ry="252.458" transform="translate(304.565 252.458)" fill="#c4f928"/><path d="M509.91492,330.446c6.17285-109.91113,18.61084-184.15185,18.73584-184.88916l-1.97168-.334c-.125.73779-12.5791,75.06543-18.75928,185.08008-5.70459,101.53759-7.08057,255.11767,18.75879,410.15283l1.97266-.32813C502.84412,585.28387,504.21814,431.87469,509.91492,330.446Z" transform="translate(-206.853-75.4014)" fill="#3f3d56"/><rect width="126.887" height="2.00012" rx="0" ry="0" transform="matrix(.881657-.471891 0.471891 0.881657 303.453455 261.461069)" fill="#3f3d56"/><rect width="2.00012" height="126.887" rx="0" ry="0" transform="matrix(.471652-.881785 0.881785 0.471652 185.354963 233.358306)" fill="#3f3d56"/><ellipse rx="46.2286" ry="94.3251" transform="translate(201.491 508.968)" fill="#008200"/><path d="M408.30341,588.43341l.27362.5116l41.79785-22.37207-.94336-1.76368-41.041,21.967c2.27112-41.80139,6.91614-69.86267,7.00977-70.41522l-1.97168-.334c-.10223.60339-5.62122,33.92651-7.58014,82.1449L364.455,576.0163l-.9434,1.7637l41.79785,22.372.499-.9328c-1.56732,39.79736-.68884,89.55963,7.61969,139.41034l1.97266-.32813c-9.0587-54.35241-9.25822-108.60274-7.09739-149.868Z" transform="translate(-206.853-75.4014)" fill="#3f3d56"/><path d="M767.8838,459.86565c-16.07417-27.39543-47.87565-28.67218-47.87565-28.67218s-30.98872-3.9971-50.86779,37.72647c-18.52888,38.88981-44.1011,76.4387-4.11692,85.54252l7.2223-22.67357l4.47274,24.3616c5.69281.412995,11.404077.511448,17.10774.29491c42.81983-1.39444,83.59924.408,82.2862-15.09055-1.74542-20.6031,7.23797-55.12932-8.22862-81.4892Z" transform="translate(-206.853-75.4014)" fill="#2f2e41"/><path d="M655.84213,679.30051c-.448615,2.863743-1.09999,5.69202-1.94921,8.4635-.95617,2.712-2.4324,5.22006-3.30667,7.96-2.78678,8.73379,1.07652,18.47175,7.24682,25.21311c5.335151,5.813338,12.244291,9.951502,19.88743,11.91139c5.56641,1.41209,11.35417,1.61532,17.09064,1.81153c15.88459.54331,32.17788,1.02938,47.22947-4.11969c4.758035-1.668068,9.351486-3.772897,13.72159-6.28756c1.382862-.665224,2.599387-1.631388,3.56045-2.82771c1.148-1.64851,1.29485-3.78648,1.28483-5.801-.03378-6.79217-1.39894-13.5497-1.07481-20.33408.17953-3.75786.87679-7.51282.53357-11.25908-.946071-8.686833-7.242621-15.845221-15.73776-17.89186-4.2698-.92484-8.69846-.42089-13.04555.00071-11.283321,1.093596-22.615525,1.604684-33.95148,1.53123-11.58212-.07457-23.09272-1.85786-34.61719-2.04411-3.40812-.05507-3.33927,1.00471-4.42429,4.33169-.99965,3.062923-1.817028,6.182361-2.44784,9.34193Z" transform="translate(-206.853-75.4014)" fill="#454bff"/><path d="M610.5518,673.78022c-3.113408-.789442-6.322998-1.133592-9.533-1.02218-6.824946.430162-13.144413,3.744204-17.379,9.11386-4.191879,5.448074-5.901213,12.407009-4.71053,19.17721.776824,3.627054,2.047851,7.13031,3.77749,10.41167c2.52818,5.17506,5.56038,10.33824,10.2407,13.65454c2.817293,1.822161,5.854022,3.280172,9.0377,4.33923l24.6503,9.36656c3.62634,1.37793,7.25322,2.75606,10.91545,4.03375c18.388616,6.412554,37.573455,10.259542,57.01276,11.43233c5.919.35552,11.92757.45444,17.70188-.90474c1.411368-.186911,2.70318-.89086,3.62532-1.97555.470206-.826866.747126-1.74945.81-2.69858l1.51685-10.7108c.339503-1.49176.295144-3.045254-.12893-4.51521-.69486-1.80009-2.43661-2.93247-4.09733-3.89455-16.20583-9.38838-35.12808-14.56788-48.76876-27.45327-3.21124-3.03343-5.89853-7.84172-9.80015-9.90227-4.42438-2.33663-9.63493-3.67023-14.20814-5.82341-9.99757-4.7071-19.82714-10.11628-30.66261-12.62859Z" transform="translate(-206.853-75.4014)" fill="#454bff"/><path d="M635.16155,688.21992c8.71284,2.75379,45.4985,21.83206,51.80367,28.49317-.84515.30714-29.52024-15.90188-30.38066-16.16235-7.8213-2.36765-15.68608-4.75084-23.11356-8.2158-1.49421-.697-9.70725-3.97339-9.3353-5.875.41971-2.1458,9.47908,1.27111,11.02585,1.75998Z" transform="translate(-206.853-75.4014)" opacity="0.1"/><path d="M743.85978,759.84212c.495.036405.986233-.109414,1.3812-.41.351209-.455798.506552-1.032643.43173-1.60317l-.04059-14.59191c-4.16007-1.99922-8.81341-2.64-13.38091-3.25584L710.94,737.108c.48963.066-3.33213,9.25835-2.74614,10.48556c1.03282,2.163,8.92583,4.07993,11.15342,5.10119c7.74387,3.55025,15.79079,7.45325,24.5125,7.14737Z" transform="translate(-206.853-75.4014)" fill="#ffb8b8"/><path d="M676.9961,743.18654c-4.02375.64644-8.51478,1.21786-11.12062,4.3772-3.30456,4.00647-1.89778,9.97911-.3214,14.94233.233537,1.002661.703527,1.934914,1.37074,2.71894c1.0758,1.0705,2.72438,1.22733,4.23256,1.32366c3.6696.23438,7.5748.418,10.78107-1.39754c1.452905-.968513,2.851047-2.016762,4.188-3.13993c2.3615-1.585556,4.960833-2.784217,7.7-3.55079c5.028952-1.595775,10.208106-2.672348,15.45641-3.21287c2.068017-.095116,4.114853-.459047,6.08891-1.08262c2.005271-.655645,3.590593-2.208129,4.28806-4.19924.74268-2.65177-.7853-5.35534-2.25074-7.68092-1.8255-2.897-3.75946-5.94731-6.48137-8.07994-3.97094-3.11126-5.93524-.72288-9.93521,1.26808-7.56403,3.766649-15.654376,6.367288-23.99641,7.71364Z" transform="translate(-206.853-75.4014)" fill="#ffb8b8"/><path d="M666.48083,746.8423l-25.54933-7.61685c-3.062717-1.076017-6.265343-1.701997-9.50781-1.85838-3.24017.00243-6.63019,1.074-8.73159,3.56168-1.98118,2.34535-2.54823,5.55078-3.04213,8.59145l-1.05653,6.50446c-.704587,3.279942-.90407,6.648261-.59155,9.98844.48326,3.3139,2.16045,6.6247,5.07562,8.22893c3.53553,1.94562,7.86877.99532,11.81463.18151c7.968615-1.643063,16.076146-2.520001,24.21179-2.61883c3.05812-.03689,6.26572.00175,8.968-1.44283c3.21217-1.71717,5.13389-5.348,5.46432-8.99972.50275-5.55627-1.33333-12.81397-7.05542-14.51986Z" transform="translate(-206.853-75.4014)" fill="#ebeaff"/><path d="M753.90283,740.20469c3.31209-.58551,6.23519-2.48419,9.40888-3.60492c4.46715-1.57747,9.30811-1.57745,14.04108-1.56c1.73747.0064,3.5877.04569,5.034,1.01689c2.0848,1.4,2.61912,4.20158,2.97361,6.70237l2.13879,15.08837c.40229,2.838.80219,5.75186.17472,8.548s-2.517,5.49166-5.2678,6.213c-3.34092.87606-6.61612-1.27659-9.77059-2.69068-7.88433-3.5344-17.04941-2.631-25.27025-5.27268-1.52562-.49024-3.15957-1.23985-3.782-2.72788-.281251-.838564-.381533-1.727226-.29423-2.60738.14078-4.84984-.87334-11.4724.57427-16.10748c1.30192-4.16854,6.34238-2.99761,10.03952-2.99761Z" transform="translate(-206.853-75.4014)" fill="#ebeaff"/><path d="M807.97077,667.70718c5.103361-1.291112,10.397003-1.655917,15.62923-1.07707c4.1783.4643,8.48322,1.637,11.53384,4.55405c3.71305,3.55044,4.90606,9.04129,5.00559,14.20093.167702,10.263482-3.208918,20.270849-9.56049,28.33464-1.546919,2.031969-3.389313,3.820914-5.46593,5.30736-2.235776,1.410964-4.620786,2.570252-7.11151,3.45671L762.79813,744.446c-14.52278,5.77778-29.09682,11.5723-44.24486,15.38131-.837995.406436-1.805074.455316-2.679779.135448s-1.58211-.981087-1.960221-1.832238c-4.84001-6.974707-8.897451-14.461063-12.099-22.32378-.292402-.508183-.349297-1.118421-.15588-1.6719.202125-.303829.484132-.546025.815-.69995l39.04575-22.62864c2.865609-1.508081,5.534745-3.363072,7.94723-5.52315c1.689517-1.652392,3.071152-3.592555,4.08015-5.72956.80935-1.70512.88485-5.729,1.91866-6.98929c1.0122-1.234,4.47473-1.33246,6.07391-1.81781c2.256129-.697115,4.46486-1.539272,6.61239-2.52121c8.73424-3.94123,16.512-9.66764,24.8849-14.28241c4.692025-2.706547,9.710846-4.802083,14.93439-6.23564Z" transform="translate(-206.853-75.4014)" fill="#454bff"/><path d="M785.83531,684.60617c-6.70819,5.08192-15.39412,9.75337-22.04265,14.9692-2.26907,1.78011-40.09506,23.2303-40.6299,26.07915c6.20271,1.05416,45.71452-26.82656,51.36768-29.60861s10.66448-6.70533,15.63028-10.59966c1.26549-.99244,6.62863-3.97587,2.99581-5.08467-2.04653-.62458-5.81036,3.22863-7.32122,4.24459Z" transform="translate(-206.853-75.4014)" opacity="0.1"/><circle r="38" transform="translate(511.795 415.39)" fill="#ffb8b8"/><path d="M734.64734,522.79169c0,0-6,15,5,21s-34,54-34,54l-20-58c0,0,17-6,14-22Z" transform="translate(-206.853-75.4014)" fill="#ffb8b8"/><path d="M709.64734,563.79169l24.218-26.73574l32.782,16.73574-5,118-8,9c0,0-34,30-86,5c0,0-18-15-17-38s-2-26-2-26l-1-81l49.37111-9.688Z" transform="translate(-206.853-75.4014)" fill="#e9a0f9"/><path d="M598.60023,691.0311l-6.17411,19.02315c0,0-29.73606,30.72075-18.98128,39.04755s34.884-35.56837,34.884-35.56837l4.447-21.47613Z" transform="translate(-206.853-75.4014)" fill="#ffb8b8"/><path d="M655.64734,543.79169l-9-3c0,0-14,4-16,18s-17,85-17,85-6,3-2,8-20,50-20,50l19,9c0,0,38-40,38-44s-1-8-1-12s1-4,0-7c-.667523-2.614175-1.003495-5.301948-1-8l7-16Z" transform="translate(-206.853-75.4014)" fill="#e9a0f9"/><polygon points="553.925,381.823 522.506,365.224 479.119,372.014 470.142,412.005 492.488,411.138 498.73,396.446 498.73,410.895 509.041,410.495 515.026,387.105 518.766,412.005 555.421,411.25 553.925,381.823" fill="#2f2e41"/><path d="M538.05731,714.48169v57.68h-176.18c.001706-31.855078,25.824922-57.678294,57.68-57.68c16.52-5.15,35.62006-6.79,56.34-6.25c19.55002.5,40.54001,2.95001,62.16,6.25Z" transform="translate(-206.853-75.4014)" fill="#ff6584"/><path d="M306.037,684.17757h82.84747c1.390663,0,2.724367.552439,3.707714,1.535786s1.535786,2.317051,1.535786,3.707714v0c0,1.390663-.552439,2.724367-1.535786,3.707714s-2.317051,1.535786-3.707714,1.535786h-82.84747v-10.487Z" fill="#3f3d56"/><path d="M527.23842,665.11961l22.20633-26.91828c1.047776-2.185898,3.338987-3.495222,5.754179-3.288253s4.450229,1.887027,5.110821,4.219323l8.75714,30.91845Z" transform="translate(-206.853-75.4014)" fill="#3f3d56"/><path d="M500.30525,678.829l8.38962-33.87224c.000021-2.424024,1.500189-4.595048,3.767548-5.452353s4.828642-.221941,6.432452,1.595663l21.261,24.09581Z" transform="translate(-206.853-75.4014)" fill="#ff6584"/><path d="M155.02392,696.762h16.77923v35.65589c0,4.450126-1.767806,8.717986-4.91452,11.8647s-7.414574,4.91452-11.8647,4.91452v0-52.43511Z" fill="#ff6584"/><path d="M302.89091,686.275h82.84747c1.390663,0,2.724367.552439,3.707714,1.535786s1.535786,2.317051,1.535786,3.707714v0c0,1.390665-.55244,2.724373-1.535789,3.707721s-2.317056,1.535789-3.707721,1.535789h-82.84746v-10.48701Z" fill="#ff6584"/><path d="M538.05731,714.48169v57.36c-17.244396,1.832141-34.377952-4.335619-46.498033-16.738424s-17.891189-29.674004-15.661967-46.871576c19.55002.5,40.54001,2.95001,62.16,6.25Z" transform="translate(-206.853-75.4014)" opacity="0.2"/><circle r="56.6299" transform="translate(331.206 640.132)" fill="#ff6584"/><ellipse rx="6.29221" ry="14.6818" transform="translate(385.738 644.327)" fill="#3f3d56"/><ellipse rx="1.57305" ry="3.67046" transform="translate(370.532 629.121)" fill="#3f3d56"/><ellipse rx="1.57305" ry="3.67046" transform="translate(382.068 621.78)" fill="#3f3d56"/><path d="M533.3074,658.27332c0,0-3.14749-5.47519-3.14749-8.81524" transform="translate(-206.853-75.4014)" fill="#3f3d56"/><path d="M534.692,654.7321c0,0,1.715-6.07809,4.10346-8.4129" transform="translate(-206.853-75.4014)" fill="#3f3d56"/></svg>
