<svg id="ea79Ehg4ebv1" xmlns="http://www.w3.org/2000/svg" xmlns:xlink="http://www.w3.org/1999/xlink" viewBox="0 0 890 729.78732" shape-rendering="geometricPrecision" text-rendering="geometricPrecision"><path d="M374.67742,751.01587l1.81026,38.1569.00007.00154c.635865,13.429284-9.734364,24.831755-23.16357,25.46925l-.79019.03746-2.96371-62.47386Z" transform="translate(-155-85.1063)" fill="#2f2e41"/><path d="M917.17122,686.53355c-18.17322,35.46508-41.224,69.7641-70.38922,100.80761-.64771.70105-1.30188,1.384-1.96192,2.07929l-69.10083-32.713c.42273-.70234.88623-1.49061,1.38458-2.3526c29.68323-50.787,208.86487-360.59147,203.20295-430.75837.65954,5.78704,21.89813,197.169-63.13556,362.93707Z" transform="translate(-155-85.1063)" fill="#35b900"/><path d="M860.11317,793.65232c-.96722.54981-1.959,1.088-2.95721,1.60809l-51.83789-24.54052c.72473-.51422,1.569-1.1222,2.53943-1.80591c15.88128-11.40253,63.10528-45.61328,109.31366-82.38043c49.658-39.51087,98.15216-81.96412,105.35394-102.22834-1.46289,4.64679-46.91443,145.8971-162.41193,209.34711Z" transform="translate(-155-85.1063)" fill="#35b900"/><circle r="80" transform="translate(86.2298 648.051)" fill="#ff8d63"/><path d="M273.2751,699.58573h-64.09071c-5.896617.006657-10.675112,4.785143-10.68178,10.68176v45.779c.006608,5.896652,4.785129,10.67519,10.68178,10.68182h64.09077c5.896675-.006597,10.675232-4.785145,10.68184-10.68182v-45.779c-.006652-5.89667-4.78523-10.675185-10.6819-10.68176Zm0,6.10388c.382619.001526.763523.051214,1.13373.14789l-33.17169,26.46131-32.97773-26.51514c.304315-.062642.614214-.094157.92491-.09406Zm0,54.93482h-64.09071c-2.527111-.002915-4.575007-2.050828-4.5779-4.57794v-45.36792l34.711,27.90887c1.113387.895096,2.698704.898113,3.81549.00726l34.72012-27.69677v45.14849c-.002849,2.52718-2.05082,4.575155-4.578,4.57801Z" transform="translate(-155-85.1063)" fill="#fff"/><path d="M549.9684,617.65757l17.90008.14728c3.666096.030198,7.159246-1.556523,9.548495-4.33729s3.43183-6.47303,2.849885-10.09277v0c-.627437-3.903185-3.070786-7.27664-6.583702-9.089911s-7.678097-1.850958-11.223248-.101549L545.57942,602.513l-57.73651,12.87561-24.7352-25.28925-14.20819,23.401l33.378,25.78785Z" transform="translate(-155-85.1063)" fill="#ffb8b8"/><path d="M546.61342,802.59623l-21.08948,4.05566c-14.40533-45.4085-30.013-88.41082-30.012-121.67016-20.38611,22.689-45.66654,35.66931-75.43552,39.7456l3.24454-50.29034l24.334-12.97815l37.243-17.18909c3.260804-1.504988,6.77842-2.375126,10.36481-2.5639v0c14.439955-.759987,27.127324,9.495168,29.41186,23.7735Z" transform="translate(-155-85.1063)" fill="#7800d2"/><path d="M445.62712,718.64384l-8.40558,6.38824c-7.354507,5.589429-17.120376,6.862544-25.66205,3.3454v0C387.48408,710.3314,370.38,715.65526,354.878,742.89366c-18.59411-20.98529-23.18156-51.29462-6.587-82.6515L440.35475,662.27l18.6561-5.67792Z" transform="translate(-155-85.1063)" fill="#7800d2"/><path d="M414.96663,812.623v0c-10.888318,3.350272-22.611773-1.589043-27.81977-11.721-8.27362-7.28741-15.25454-17.72094-21.30929-30.40863-4.344294-9.307154-8.074663-18.888714-11.16718-28.68322-4.18966-12.94007,2.81586-27.07679,15.85471-30.94812q.58159-.17268,1.17737-.32557c17.40628-4.46887,35.28122,5.57062,41.23114,22.5279l17.30115,49.30829c2.06414,5.882813,1.706797,12.344658-.993418,17.964s-7.522115,9.935872-13.404932,12q-.43204.15161-.86978.28635Z" transform="translate(-155-85.1063)" fill="#7800d2"/><path style="isolation:isolate" d="M362.8914,764.87846c0,0,20.27835,22.71179,24.334,35.68994" transform="translate(-155-85.1063)" opacity="0.2"/><path d="M284.244,657.693l-6.7868,16.56427c-1.389971,3.392501-1.214529,7.225104.47957,10.476428s4.73473,5.591023,8.31157,6.395572v0c3.856916.867486,7.89662-.147733,10.88518-2.735559s4.570974-6.440857,4.26389-10.382181l-1.46231-18.767l9.4957-58.38764l32.66858-13.56958-16.44763-21.885-36.3425,21.40869Z" transform="translate(-155-85.1063)" fill="#ffb8b8"/><path d="M446.43825,660.2421c-23.30585,39.14728-69.76678,54.306-109.5603,23.65156c7-23,29.60041-86.56659,15-89-31,13-31.045-17.52289-36.84348-32.7989l70.56869-25.95629l38.12336,10.54473l7.81478,2.773c10.4162,3.696105,17.430857,13.485378,17.58228,24.53687-16.01419,23.13557-27.86932,47.81556-2.68533,86.24903Z" transform="translate(-155-85.1063)" fill="#fd87ff"/><path d="M455.36073,628.60789L427.3766,605.49058l9.32806-53.94043l38.12333,40.5567Z" transform="translate(-155-85.1063)" fill="#fd87ff"/><path d="M919.70454,258.05134h-4v-109.545c0-35.014853-28.385147-63.4-63.4-63.4h-232.087c-35.014853,0-63.4,28.385147-63.4,63.4v600.974c0,35.014853,28.385147,63.4,63.4,63.4h232.08594c35.014853,0,63.4-28.385147,63.4-63.4v-413.45302h4Z" transform="translate(-155-85.1063)" fill="#3f3d56"/><path d="M854.8625,101.59933h-30.295c2.830621,6.936728,2.021973,14.827449-2.156798,21.045848s-11.179165,9.94826-18.671202,9.948152h-132.959c-7.491069-.000632-14.490323-3.730228-18.668695-9.94773s-4.987561-14.10703-2.158305-21.04327h-28.3c-26.149578,0-47.348,21.198422-47.348,47.348v600.089c0,26.149578,21.198422,47.348,47.348,47.348h233.20003c26.149578,0,47.348-21.198422,47.348-47.348v-.00013v0-600.0919c0-26.149578-21.198422-47.348-47.348-47.348h.009Z" transform="translate(-155-85.1063)" fill="#fff"/><circle r="26" transform="translate(583.659 651.746)" fill="#e6e6e6"/><g transform="translate(0-1.425)"><path d="M633.1822,496.40455c-2.45764,0-4.45758,2.28274-4.45758,5.08789s1.99994,5.08789,4.45758,5.08789h210.14258c2.45764,0,4.45758-2.28275,4.45758-5.08789s-1.99994-5.08789-4.45758-5.08789Z" transform="translate(-155-85.1063)" fill="#e6e6e6"/><path d="M633.1822,616.40458c-2.45764,0-4.45758,2.28271-4.45758,5.08789s1.99994,5.08789,4.45758,5.08789h210.14258c2.45764,0,4.45758-2.28271,4.45758-5.08789s-1.99994-5.08789-4.45758-5.08789Z" transform="translate(-155-85.1063)" fill="#e6e6e6"/><path d="M633.1822,526.93192c-2.45764,0-4.45758,2.28272-4.45758,5.08789s1.99994,5.08789,4.45758,5.08789h90.425c2.45764,0,4.45758-2.28271,4.45758-5.08789s-1.99994-5.08789-4.45758-5.08789Z" transform="translate(-155-85.1063)" fill="#e6e6e6"/><path d="M633.1822,556.03031c-2.45764,0-4.45758,2.28272-4.45758,5.08789s1.99994,5.08789,4.45758,5.08789h210.14258c2.45764,0,4.45758-2.28271,4.45758-5.08789s-1.99994-5.08789-4.45758-5.08789Z" transform="translate(-155-85.1063)" fill="#e6e6e6"/><path d="M633.1822,586.55772c-2.45764,0-4.45758,2.28271-4.45758,5.08789s1.99994,5.08789,4.45758,5.08789h90.425c2.45764,0,4.45758-2.28272,4.45758-5.08789s-1.99994-5.08789-4.45758-5.08789Z" transform="translate(-155-85.1063)" fill="#e6e6e6"/><path d="M672.85322,264.7335h130.81354c3.008778.003549,5.446995,2.441752,5.45056,5.45053v136.23691c-.003565,3.008778-2.441782,5.446981-5.45056,5.45053h-130.81354c-3.008778-.003549-5.446995-2.441752-5.45056-5.45053v-136.23694c.003582-3.008767,2.441793-5.446951,5.45056-5.4505Z" transform="translate(-155-85.1063)" fill="#00e3bd"/><path d="M775.793,383.777c1.323421.002722,2.547547-.701527,3.210416-1.846977s.663556-2.557699.001801-3.703794-1.885194-1.851533-3.208617-1.850099h-75.0696c-1.323421-.002722-2.547547.701527-3.210416,1.846977s-.663556,2.557699-.001801,3.703794s1.885194,1.851533,3.208617,1.850099h75.0696Z" transform="translate(-155-85.1063)" fill="#fff"/><path d="M775.793,361.9748c2.043696,0,3.70044-1.656744,3.70044-3.70044s-1.656744-3.70044-3.70044-3.70044h-75.066c-2.043697-.000994-3.701246,1.654943-3.70224,3.69864s1.654943,3.701246,3.69864,3.70224h75.0696Z" transform="translate(-155-85.1063)" fill="#fff"/><path d="M738.25972,292.828c9.420962-.000008,17.91428,5.675036,21.519533,14.378867s1.612447,18.722379-5.049175,25.38401-16.680167,8.654449-25.384003,5.049207-14.378891-12.098552-14.378895-21.519514v0c.01451-12.858104,10.434436-23.278043,23.29254-23.29257Z" transform="translate(-155-85.1063)" fill="#fff"/></g><path d="M441.06405,529.07654h-69.14981c-2.961666-.003334-5.36174-2.403404-5.36508-5.36507v-29.80595c0-22.058253,17.881747-39.94,39.94-39.94s39.94,17.881747,39.94,39.94v29.80595c-.00334,2.961678-2.403432,5.361752-5.36511,5.36507Z" transform="translate(-155-85.1063)" fill="#2f2e41"/><circle r="29.2826" transform="matrix(.47966-.877455 0.877455 0.47966 259.124115 412.892089)" fill="#ffb6b6"/><path d="M455.878,496.88611h-42.28346l-.4337-6.07063-2.16792,6.07063h-6.51073l-.85925-12.03182-4.29683,12.03182h-12.598v-.59611c.019558-17.440827,14.153173-31.574581,31.594-31.59431h5.96148c17.440941.019613,31.574741,14.153369,31.59441,31.59431Z" transform="translate(-155-85.1063)" fill="#2f2e41"/><path d="M413.24849,534.64042c-.31833-.000315-.636028-.028361-.94949-.08382l-30.9618-5.46288v-51.17072h34.083l-.84382.98383c-11.74017,13.69211-2.89531,35.894,3.42186,47.90957.950226,1.79588.786954,3.977466-.42,5.6119-1.004766,1.389311-2.615183,2.212092-4.32975,2.21212Z" transform="translate(-155-85.1063)" fill="#2f2e41"/><path d="M516.33268,787.28155l38.19981-.00155h.00155c13.444342.000696,24.343027,10.899188,24.34396,24.34353v.79108l-62.54411.00232Z" transform="translate(-155-85.1063)" fill="#2f2e41"/><path d="M1044,814.89366h-888c-.552285,0-1-.447715-1-1s.447715-1,1-1h888c.552285,0,1,.447715,1,1s-.447715,1-1,1Z" transform="translate(-155-85.1063)" fill="#cacaca"/></svg>
