<svg id="eowcNDWEPxt1" xmlns="http://www.w3.org/2000/svg" xmlns:xlink="http://www.w3.org/1999/xlink" viewBox="0 0 779 669" shape-rendering="geometricPrecision" text-rendering="geometricPrecision"><ellipse rx="150" ry="31" transform="translate(631.883403 639.95288)" fill="#dcdcdc"/><g id="eowcNDWEPxt3" transform="translate(0-1.425)"><path d="M256.37325,505.528c.894,2.08315,1.84014,4.18894,2.81131,6.25818l-2.08144.9769c-.98214-2.09262-1.93829-4.221-2.84273-6.32777Z" transform="translate(-210.5-115.5)" fill="#e6e6e6"/><path d="M627.59969,338.87572c1.31318,2.798,2.57432,5.64886,3.7492,8.47451l-2.1233.88244c-1.75874-4.23086-3.704-8.49448-5.75619-12.61863l2.0595-1.02364q1.05621,2.1236,2.07079,4.28532ZM618.86122,322.252l-1.98459,1.16212c-2.33-3.98137-4.82261-7.9236-7.40827-11.72047l1.90047-1.29378c2.61424,3.83925,5.13541,7.82637,7.49239,11.85213ZM636.294,360.47105c1.49443,4.41816,2.85227,8.9364,4.036,13.42971l-2.22338.58464c-1.17041-4.44126-2.513-8.90839-3.99154-13.27694Zm-33.213-61.38259l-1.80822,1.42163c-2.84626-3.61751-5.85606-7.18183-8.94549-10.59344l1.70377-1.54377c3.12563,3.45169,6.17059,7.05656,9.04994,10.71558Zm40.35165,88.489c.87288,4.571,1.59681,9.23419,2.15245,13.85856l-2.282.27481c-.55038-4.57352-1.2666-9.1833-2.12919-13.70329ZM584.26384,278.309l-1.59311,1.658c-3.31744-3.18925-6.78645-6.30242-10.30875-9.25167l1.47717-1.76234c3.56164,2.98287,7.06897,6.13013,10.42469,9.35601Zm62.51459,137.122c.23454,4.6616.30959,9.385.22211,14.03964l-2.2997-.043c.08641-4.6014.01256-9.27206-.21952-13.88087ZM562.79249,260.33289l-1.352,1.85987c-3.72476-2.70416-7.589-5.31435-11.485-7.75457l1.22064-1.94952c3.94051,2.46895,7.84819,5.10833,11.61636,7.84422Zm83.46466,183.15493c-.40722,4.64716-.97964,9.33342-1.703,13.93055l-2.27129-.35776c.71455-4.54461,1.28166-9.17876,1.68458-13.77431ZM539.04935,245.457l-1.085,2.02722c-4.0594-2.17256-8.24416-4.23172-12.43967-6.12088l.94306-2.097c4.24426,1.91088,8.47713,3.99333,12.58161,6.19066ZM641.90209,471.19778c-1.03532,4.53765-2.241,9.1007-3.58435,13.5634l-2.20143-.66339c1.32751-4.41186,2.5199-8.924,3.54392-13.41172ZM513.4914,233.94668l-.79886,2.15587c-4.31771-1.5999-8.74556-3.07245-13.16205-4.37546l.65144-2.20573c4.46583,1.3183,8.9435,2.80715,13.30947,4.42532ZM633.81768,498.04619c-1.64385,4.35881-3.45891,8.71487-5.39316,12.94643l-2.0907-.956c1.913-4.18437,3.70649-8.49125,5.33231-12.80128ZM486.59652,226.01431l-.4997,2.24365c-4.49036-.998-9.07917-1.85425-13.63742-2.545l.34472-2.27262c4.60988.69755,9.25061,1.56416,13.7924,2.57397ZM622.16388,523.5388c-2.21987,4.09338-4.60983,8.15994-7.10129,12.08686l-1.94222-1.23152c2.46375-3.88291,4.82672-7.90393,7.02311-11.95219ZM458.86256,221.8168l-.18748,2.29059c-4.59419-.37627-9.258-.59707-13.86464-.65623l.03-2.29852c4.65879.05951,9.37582.28263,14.02212.66421ZM607.15347,547.19623c-2.756,3.74909-5.67752,7.44936-8.68267,10.9979l-1.75409-1.486c2.97051-3.50871,5.85961-7.16711,8.58466-10.87377ZM430.80281,221.45446l.12982,2.29545c-4.60345.25934-9.25667.68217-13.83081,1.25764l-.28687-2.28127c4.62655-.58271,9.33314-1.01075,13.98786-1.27182ZM589.05713,568.56465c-3.2473,3.33911-6.65251,6.606-10.12,9.71111l-1.53348-1.71356c3.42844-3.06943,6.79407-6.29912,10.00577-9.60045ZM402.96694,224.95935l.44418,2.25706c-4.51865.88924-9.06209,1.94763-13.50451,3.14463l-.59778-2.21969c4.49298-1.21081,9.08794-2.28098,13.65811-3.182ZM568.17088,587.26267c-3.67406,2.85791-7.496,5.62526-11.35928,8.22408L555.528,593.579c3.81983-2.56977,7.59834-5.30555,11.23041-8.13136ZM375.90285,232.253l.74859,2.1737c-4.34592,1.49773-8.70164,3.16749-12.94745,4.96177l-.89464-2.11757c4.29253-1.81498,8.69793-3.50309,13.0935-5.0179ZM544.91543,602.91175c-4.02543,2.32459-8.18865,4.54456-12.3741,6.59824l-1.01247-2.06474c4.13942-2.03022,8.25582-4.22573,12.23618-6.52483ZM351.1192,245.21806c-4.11568,2.0755-8.20784,4.31607-12.16243,6.6595l-1.17234-1.97731c3.99946-2.37069,8.13745-4.63649,12.29892-6.736Zm-23.84233,14.13306c-3.79517,2.61835-7.54259,5.39659-11.13792,8.25972l-1.43192-1.79843c3.63582-2.89578,7.42572-5.70636,11.26481-8.354Zm-21.67918,17.26753c-3.39095,3.107-6.717,6.37085-9.88448,9.70164L294.047,284.736c3.2041-3.36906,6.56773-6.67038,9.99771-9.81184ZM286.519,296.684c-2.93583,3.54824-5.78284,7.24083-8.4626,10.974l-1.86819-1.34067c2.71046-3.77609,5.59013-7.51005,8.55911-11.09865Zm-16.155,22.50549c-2.42474,3.91979-4.74169,7.96882-6.88721,12.03165l-2.03255-1.07254c2.16879-4.10972,4.512-8.20455,6.964-12.16937Zm-12.93771,24.509c-1.86686,4.20737-3.61263,8.534-5.18914,12.86059l-2.16018-.78693c1.59431-4.37585,3.35987-8.75147,5.247-13.0068Zm-9.48936,26.04685c-1.27873,4.4299-2.42073,8.95561-3.39322,13.45138l-2.247-.48573c.9833-4.54673,2.13763-9.12411,3.43115-13.60311ZM242.07457,396.848c-.66334,4.56522-1.17736,9.20547-1.52682,13.792l-2.29293-.174c.35379-4.63945.87312-9.3318,1.54479-13.9493Zm-2.10326,27.65892c-.03365,4.61074.094,9.27847.37863,13.875l-2.29475.14189c-.28785-4.64835-.41668-9.37011-.38372-14.03385Zm1.71445,27.6927c.60133,4.56449,1.37,9.16577,2.28452,13.67752l-2.25337.45732c-.92529-4.56374-1.70268-9.218-2.31076-13.83386Zm5.50741,27.16514c1.22283,4.434,2.616,8.88608,4.14178,13.2337l-2.17049.76073c-1.54268-4.39676-2.95163-8.89969-4.1883-13.383Z" transform="translate(-210.5-115.5)" fill="#ffb6b6"/><path d="M518.566,613.25943l.86774,2.129c-2.14976.87625-4.32509,1.72048-6.46616,2.50957l-.79522-2.15679c2.11651-.78069,4.26775-1.61548,6.39364-2.48178Z" transform="translate(-210.5-115.5)" fill="#e6e6e6"/><path d="M626.64648,517.02148c-.22949-.375-5.64062-9.41015-7.5166-28.17187-1.7207-17.21289-.61426-46.22656,14.43262-86.69824c28.50586-76.6709-6.56934-138.53321-6.92773-139.14942l1.73046-1.0039c.09082.15625,9.14161,15.92871,14.48829,41.04394c7.064635,33.297509,4.492141,67.918878-7.416,99.80664-28.457,76.54-7.30078,112.77344-7.084,113.13086Z" transform="translate(-210.5-115.5)" fill="#075601"/><circle r="13" transform="translate(405 130)" fill="#6fff63"/><circle r="13" transform="translate(446 178)" fill="#007d19"/><circle r="13" transform="translate(418 210)" fill="#6fff63"/><circle r="13" transform="translate(452 237)" fill="#6fff63"/><circle r="13" transform="translate(408 279)" fill="#007d19"/><path d="M634.5,517.5c0,0-13-32,26-56Z" transform="translate(-210.5-115.5)" fill="#51873e"/><path d="M618.512,516.91953c0,0-5.91642-34.02934-51.7085-33.73768Z" transform="translate(-210.5-115.5)" fill="#51873e"/><path d="M532.69062,278.35265c-.967282-.231571-1.956587.288651-2.314024,1.21682s.027407,1.977574.900164,2.4546c6.785313,3.787452,12.754207,8.879991,17.56285,14.98427c22.42,28.45833,14.59174,72.01423-17.4849,97.28481-14.244046,11.42007-32.002982,17.555709-50.25878,17.3642c21.53827,6.06894,46.96081,1.29359,67.44765-14.84632c32.07664-25.27058,39.9049-68.82649,17.4849-97.28481-8.421478-10.599234-20.16392-18.057104-33.33786-21.17357Z" transform="translate(-210.5-115.5)" fill="#3f3d56"/><path d="M548.8396,297.43932c22.42,28.45833,14.59176,72.01423-17.4849,97.28481-11.753308,9.364222-25.90231,15.235855-40.83242,16.94487c17.830834-.106449,35.103654-6.228907,49.02112-17.37584c32.07666-25.27058,39.90488-68.82649,17.48491-97.28482-6.359782-8.051413-14.69744-14.31738-24.2-18.18693l-.1477-.03652c-.966136-.225792-1.950456.297211-2.304064,1.224229s.032339,1.972705.903414,2.447711c6.784004,3.787266,12.751772,8.879171,17.55964,14.98249Z" transform="translate(-210.5-115.5)" fill="#ff5900"/><polygon points="238.906,138 252.14,160.922 265.374,183.844 238.906,183.844 212.438,183.844 225.672,160.922 238.906,138" fill="#ff5900"/><polygon points="287.176,138 300.411,160.922 313.645,183.844 287.176,183.844 260.708,183.844 273.942,160.922 287.176,138" fill="#ff5900"/><polygon points="237.376,149.956 245.541,164.099 253.706,178.241 237.376,178.241 221.045,178.241 229.21,164.099 237.376,149.956"/><polygon points="286.983,149.956 295.148,164.099 303.313,178.241 286.983,178.241 270.653,178.241 278.818,164.099 286.983,149.956"/><path d="M566.634,416.57186c.001689,43.647759-30.321252,81.436614-72.93298,90.890054s-86.070278-11.966941-104.52685-51.520472-6.955269-86.619424,27.663028-113.203261s83.057993-25.547411,116.507542,2.492819c21.100078,17.687566,33.288422,43.807911,33.28926,71.34086Z" transform="translate(-210.5-115.5)" fill="#ffc740"/><path d="M533.34474,345.231c-7.78789,20.33815-31.617,35.13816-59.80339,35.13816s-52.01549-14.8-59.80338-35.13816c34.594534-29.002359,85.012236-29.002359,119.60677,0Z" transform="translate(-210.5-115.5)" opacity="0.1"/><ellipse rx="62.4927" ry="49.5632" transform="translate(263.041 207.979)" fill="#ffc740"/><circle r="11.6366" transform="translate(233.734 201.083)" fill="#fff"/><circle r="11.6366" transform="translate(292.348 201.083)" fill="#fff"/><circle r="7.32673" transform="translate(233.734 201.083)" fill="#3f3d56"/><circle r="7.32673" transform="translate(292.348 201.083)" fill="#3f3d56"/><circle r="2.15492" transform="translate(249.972 217.457)"/><path d="M459.64421,332.41027c-4.22744,1.91923-7.02649,5.82616-11.46759,7.50581-4.525106,1.704694-9.499588,1.797078-14.08487.26158-.79176-.262-1.1312.98616-.34372,1.24677c4.592128,1.529689,9.55825,1.517444,14.14278-.03487c2.168102-.738166,4.203623-1.81965,6.02885-3.20316c2.11725-1.60715,3.92126-3.54475,6.37713-4.6597.75656-.34347.10008-1.45813-.65258-1.11643Z" transform="translate(-210.5-115.5)"/><path d="M461.32819,331.86078c-2.160525.49774-4.243814,1.285378-6.19323,2.3415-2.243952,1.083415-4.661069,1.763454-7.14075,2.009-4.705404.408507-9.411006-.782543-13.35545-3.38044-.69878-.45621-1.34741.66279-.65258,1.11642c3.949279,2.592143,8.623292,3.855044,13.34063,3.60459c2.28925-.118409,4.544156-.607221,6.67694-1.44741c2.5703-1.02549,4.90427-2.52093,7.66816-2.99688.81838-.14092.47143-1.38713-.34372-1.24676Z" transform="translate(-210.5-115.5)"/><path d="M460.17325,331.02288c-3.291,3.10593-4.6585,7.59207-8.14932,10.5979-3.757419,3.23284-8.538906,5.029547-13.49549,5.07111-.348542.011794-.624994.297759-.624994.6465s.276452.634706.624994.6465c4.798307-.03507,9.456086-1.623907,13.27556-4.52849c1.725658-1.309101,3.242001-2.873245,4.49693-4.63869c1.627-2.303,2.705-4.916,4.78661-6.88057.6064-.57231-.30909-1.4854-.91426-.91426Z" transform="translate(-210.5-115.5)"/><circle r="2.15492" transform="translate(272.663 217.457)"/><path d="M483.338,333.5267c2.42887,1.10269,4.22461,3.00869,6.31171,4.60916c1.842527,1.406337,3.900572,2.505116,6.09427,3.2537c4.583946,1.555825,9.551217,1.568072,14.14278.03487.78621-.26019.44939-1.50924-.34372-1.24677-4.585206,1.535976-9.559848,1.443588-14.08486-.26158-4.44156-1.68177-7.23924-5.58616-11.4676-7.50581-.75193-.34137-1.40995.77259-.65258,1.11643Z" transform="translate(-210.5-115.5)"/><path d="M481.96293,333.10754c2.65618.4574,4.90067,1.85761,7.35726,2.8725c2.224441.912759,4.586795,1.44413,6.98783,1.57179c4.717344.25051,9.391374-1.012396,13.34063-3.60459.69408-.45314.0469-1.57309-.65257-1.11642-3.942145,2.603117-8.649595,3.794634-13.35546,3.38044-2.478517-.251691-4.894587-.931435-7.14075-2.009-1.950105-1.054614-4.033185-1.842173-6.19323-2.3415-.81382-.14014-1.1634,1.10561-.34371,1.24676Z" transform="translate(-210.5-115.5)"/><path d="M482.54732,331.93714c2.07948,1.96257,3.158,4.58112,4.78661,6.88057c1.255798,1.764722,2.772022,3.328742,4.49693,4.63869c3.819532,2.904448,8.477259,4.493258,13.27553,4.52845.348542-.011794.624994-.297759.624994-.6465s-.276452-.634706-.624994-.6465c-4.957603-.036073-9.740919-1.833468-13.49549-5.07111-3.47628-3.01771-4.85933-7.49288-8.14932-10.5979-.60491-.5709-1.52092.34171-.91426.91426Z" transform="translate(-210.5-115.5)"/><ellipse rx="17.2394" ry="9.91264" transform="translate(233.734 390.717)" fill="#3f3d56"/><ellipse rx="17.2394" ry="9.91264" transform="translate(292.348 390.717)" fill="#3f3d56"/><ellipse rx="14.2225" ry="8.1887" transform="translate(261.317 217.03)" fill="#ff5900"/><path d="M210.5,115.5v556h745v-556Zm461,400h-401v-298h401Z" transform="translate(-210.5-115.5)" fill="#323232"/><rect width="181" height="9" rx="0" ry="0" transform="translate(524 97)" fill="#fff"/><rect width="181" height="9" rx="0" ry="0" transform="translate(524 128)" fill="#fff"/><rect width="181" height="9" rx="0" ry="0" transform="translate(524 159)" fill="#fff"/><rect width="181" height="9" rx="0" ry="0" transform="translate(524 190)" fill="#fff"/><rect width="181" height="9" rx="0" ry="0" transform="translate(524 221)" fill="#fff"/><rect width="181" height="9" rx="0" ry="0" transform="translate(524 252)" fill="#fff"/><rect width="181" height="9" rx="0" ry="0" transform="translate(524 283)" fill="#fff"/><rect width="181" height="9" rx="0" ry="0" transform="translate(524 314)" fill="#fff"/><rect width="181" height="9" rx="0" ry="0" transform="translate(524 345)" fill="#fff"/><rect width="181" height="9" rx="0" ry="0" transform="translate(524 376)" fill="#fff"/><circle r="12" transform="translate(84 421)" fill="#f00"/><circle r="12" transform="translate(125 421)" fill="#ff7a00"/><circle r="12" transform="translate(166 421)" fill="#3aff00"/><rect width="181" height="51" rx="0" ry="0" transform="translate(524 480)" fill="#3eacdb"/></g><path d="M824.45949,554.94635l2.02432,70.85117l21.59274,82.99709c0,0-4.72341,14.17023-1.34955,17.5441s18.89365,9.44682,18.89365,9.44682L852.8,558.995Z" transform="translate(-210.5-115.5)" fill="#2f2e41"/><path d="M871.33928,725.99294c0,0,7.7003,16.94066-3.08012,18.48072s-60.57571,5.64689-57.49559-3.08012s40.55493-16.94066,40.55493-16.94066Z" transform="translate(-210.5-115.5)" fill="#2f2e41"/><path d="M900.03408,492.19245c0,0-8.09728,43.86025-13.49546,51.28275s2.69909,61.40435,2.69909,61.40435s12.14591,77.59891,6.74773,89.74482-4.04864,8.09728-3.37387,14.845s2.02432,12.14592,0,18.21887-2.02432,5.39819-2.69909,8.772s0,21.59274,0,21.59274-29.01524,10.1216-33.73865-4.72341c0,0,6.74773-9.44682,4.72341-16.86933-2.110727-7.469624-3.244789-15.181237-3.37387-22.94228v-14.17017l-31.03956-116.061-7.4225-41.83593c0,0,2.02432-42.5107,9.44682-46.55934s71.52595-2.69907,71.52595-2.69907Z" transform="translate(-210.5-115.5)" fill="#2f2e41"/><path d="M887.88816,754.67918c0,0,10.1216,22.26751-4.04864,24.29183s-79.62322,7.4225-75.57458-4.04864s53.30706-22.26751,53.30706-22.26751Z" transform="translate(-210.5-115.5)" fill="#2f2e41"/><circle r="26.9909" transform="translate(664.56 155.395)" fill="#ffb9b9"/><path d="M894.027,282.82222l-.50246,34.46925-33.09122.11206c0,0,8.39824-26.98331,4.63655-32.62572s28.95713-1.95559,28.95713-1.95559Z" transform="translate(-210.5-115.5)" fill="#ffb9b9"/><path d="M844.70269,336.31987c0,0,23.61705-30.36479,41.83593-17.5441s24.9666,43.18547,24.9666,43.18547l-4.04864,85.02141c0,0-10.12159,12.14592-4.04864,20.24319s9.44683,6.073,4.72342,12.14592-10.1216,10.79637-8.09728,12.82069-2.02432,3.37386-2.02432,3.37386l-71.526,2.02432c0,0,2.02432-2.69909-4.04864-10.79637s1.34955-18.89364,0-22.94228-2.69909.67477-3.37386-8.77205s25.64143-118.76006,25.64143-118.76006Z" transform="translate(-210.5-115.5)" fill="#a8a0ff"/><path d="M851.45042,510.41132c0,0-1.34955,16.86933-11.47115,19.56842-3.79559,1.01216-6.64229-.91727-8.718-3.72443-3.965588-5.504515-4.175475-12.87023-.52977-18.59163l2.5-4.00009Z" transform="translate(-210.5-115.5)" fill="#ffb9b9"/><path d="M913.86693,302.24382c0,0,.67477,13.49547,0,15.51979s-1.34955,4.04863,0,6.07295.67477,8.772-.67478,9.44683s2.6991,6.74773,1.34955,10.79637-2.69909,5.39818-3.37387,6.74773-1.76175,3.76746-1.76175,3.76746-19.831-42.22953-36.02554-32.10793-29.01524,13.49546-29.01524,13.49546s8.77205-47.23412,69.50163-33.73866Z" transform="translate(-210.5-115.5)" fill="#a8a0ff"/><path d="M884.5143,333.62077c0,0,21.59274,2.02432,20.24319,30.36479s2.02432,72.8755,2.02432,72.8755-37.11252,56.68093-43.18548,60.72957-6.74773,3.37387-6.073,6.74773s1.34955,6.073-1.34954,8.772c-1.593413,1.604332-3.411874,2.968178-5.39819,4.04864s-21.59274-7.4225-19.56842-14.17023s11.47115-17.5441,11.47115-17.5441s16.19455-26.31615,16.86932-30.36479.67478-3.37387,2.6991-5.39819s7.4225-10.12159,7.4225-14.17023v-12.82064l-5.65712-68.514c-.519375-5.644166,1.397334-11.241352,5.26755-15.38234c3.21143-3.35983,8.06515-6.03404,15.23462-5.17371Z" transform="translate(-210.5-115.5)" fill="#a8a0ff"/><path d="M857.65393,250.08016c-3.573283.989853-7.404797.112562-10.19137-2.33349-2.63765-2.50631-3.5242-6.8488-1.64741-9.96592c1.62068-2.69173,4.77266-4.00817,7.772-4.944c6.616134-2.062202,13.505838-3.113089,20.43591-3.11709c3.30389-.001,6.7538.28062,9.58105,1.99013c1.39891.84586,2.58369,2.00756,3.96676,2.87908c2.54311,1.60253,5.59684,2.13506,8.389,3.24832c5.776679,2.347891,10.250909,7.086047,12.26423,12.98767.640454,1.978306,1.040625,4.026466,1.19189,6.10035.456315,5.680973-.547559,11.384273-2.91624,16.568-3.76509,8.2097-10.93115,15.11262-11.94369,24.08757-3.85751-3.23825-4.98825-8.67008-7.97611-12.72463-2.224174-2.998078-5.399364-5.153232-9.0068-6.11335-1.008122-.133368-1.955726-.556947-2.72745-1.21917-.519329-.717882-.816142-1.572604-.85352-2.45785l-1.85195-13.33426c-.37689-2.7137-.886-5.67932-2.96847-7.45968-1.306181-.972119-2.819563-1.628857-4.42176-1.91884-3.789455-.94231-7.649902-1.571799-11.54241-1.88212" transform="translate(-210.5-115.5)" fill="#2f2e41"/><path d="M903.5,446.5l-37.87935,49.15676c0,0,34.87935-29.15676,37.87935-49.15676Z" transform="translate(-210.5-115.5)" opacity="0.1"/><polygon points="656.641,276.575 657,323 635,356 653,319 656.641,276.575" opacity="0.1"/>
<script><![CDATA[
!function(t,n){"object"==typeof exports&&"undefined"!=typeof module?module.exports=n():"function"==typeof define&&define.amd?define(n):((t="undefined"!=typeof globalThis?globalThis:t||self).__SVGATOR_PLAYER__=t.__SVGATOR_PLAYER__||{},t.__SVGATOR_PLAYER__["5c7f360c"]=n())}(this,(function(){"use strict";function t(t,n){var e=Object.keys(t);if(Object.getOwnPropertySymbols){var r=Object.getOwnPropertySymbols(t);n&&(r=r.filter((function(n){return Object.getOwnPropertyDescriptor(t,n).enumerable}))),e.push.apply(e,r)}return e}function n(n){for(var e=1;e<arguments.length;e++){var r=null!=arguments[e]?arguments[e]:{};e%2?t(Object(r),!0).forEach((function(t){o(n,t,r[t])})):Object.getOwnPropertyDescriptors?Object.defineProperties(n,Object.getOwnPropertyDescriptors(r)):t(Object(r)).forEach((function(t){Object.defineProperty(n,t,Object.getOwnPropertyDescriptor(r,t))}))}return n}function e(t){return(e="function"==typeof Symbol&&"symbol"==typeof Symbol.iterator?function(t){return typeof t}:function(t){return t&&"function"==typeof Symbol&&t.constructor===Symbol&&t!==Symbol.prototype?"symbol":typeof t})(t)}function r(t,n){if(!(t instanceof n))throw new TypeError("Cannot call a class as a function")}function i(t,n){for(var e=0;e<n.length;e++){var r=n[e];r.enumerable=r.enumerable||!1,r.configurable=!0,"value"in r&&(r.writable=!0),Object.defineProperty(t,r.key,r)}}function u(t,n,e){return n&&i(t.prototype,n),e&&i(t,e),t}function o(t,n,e){return n in t?Object.defineProperty(t,n,{value:e,enumerable:!0,configurable:!0,writable:!0}):t[n]=e,t}function a(t){return(a=Object.setPrototypeOf?Object.getPrototypeOf:function(t){return t.__proto__||Object.getPrototypeOf(t)})(t)}function l(t,n){return(l=Object.setPrototypeOf||function(t,n){return t.__proto__=n,t})(t,n)}function s(){if("undefined"==typeof Reflect||!Reflect.construct)return!1;if(Reflect.construct.sham)return!1;if("function"==typeof Proxy)return!0;try{return Boolean.prototype.valueOf.call(Reflect.construct(Boolean,[],(function(){}))),!0}catch(t){return!1}}function f(t,n,e){return(f=s()?Reflect.construct:function(t,n,e){var r=[null];r.push.apply(r,n);var i=new(Function.bind.apply(t,r));return e&&l(i,e.prototype),i}).apply(null,arguments)}function c(t,n){if(n&&("object"==typeof n||"function"==typeof n))return n;if(void 0!==n)throw new TypeError("Derived constructors may only return object or undefined");return function(t){if(void 0===t)throw new ReferenceError("this hasn't been initialised - super() hasn't been called");return t}(t)}function h(t,n,e){return(h="undefined"!=typeof Reflect&&Reflect.get?Reflect.get:function(t,n,e){var r=function(t,n){for(;!Object.prototype.hasOwnProperty.call(t,n)&&null!==(t=a(t)););return t}(t,n);if(r){var i=Object.getOwnPropertyDescriptor(r,n);return i.get?i.get.call(e):i.value}})(t,n,e||t)}function v(t){return function(t){if(Array.isArray(t))return y(t)}(t)||function(t){if("undefined"!=typeof Symbol&&null!=t[Symbol.iterator]||null!=t["@@iterator"])return Array.from(t)}(t)||function(t,n){if(!t)return;if("string"==typeof t)return y(t,n);var e=Object.prototype.toString.call(t).slice(8,-1);"Object"===e&&t.constructor&&(e=t.constructor.name);if("Map"===e||"Set"===e)return Array.from(t);if("Arguments"===e||/^(?:Ui|I)nt(?:8|16|32)(?:Clamped)?Array$/.test(e))return y(t,n)}(t)||function(){throw new TypeError("Invalid attempt to spread non-iterable instance.\nIn order to be iterable, non-array objects must have a [Symbol.iterator]() method.")}()}function y(t,n){(null==n||n>t.length)&&(n=t.length);for(var e=0,r=new Array(n);e<n;e++)r[e]=t[e];return r}Number.isInteger||(Number.isInteger=function(t){return"number"==typeof t&&isFinite(t)&&Math.floor(t)===t}),Number.EPSILON||(Number.EPSILON=2220446049250313e-31);var g=d(Math.pow(10,-6));function d(t){var n=arguments.length>1&&void 0!==arguments[1]?arguments[1]:6;if(Number.isInteger(t))return t;var e=Math.pow(10,n);return Math.round((+t+Number.EPSILON)*e)/e}function p(t,n){var e=arguments.length>2&&void 0!==arguments[2]?arguments[2]:g;return Math.abs(t-n)<e}var m=Math.PI/180;function b(t){return t}function w(t,n,e){var r=1-e;return 3*e*r*(t*r+n*e)+e*e*e}function x(){var t=arguments.length>0&&void 0!==arguments[0]?arguments[0]:0,n=arguments.length>1&&void 0!==arguments[1]?arguments[1]:0,e=arguments.length>2&&void 0!==arguments[2]?arguments[2]:1,r=arguments.length>3&&void 0!==arguments[3]?arguments[3]:1;return t<0||t>1||e<0||e>1?null:p(t,n)&&p(e,r)?b:function(i){if(i<=0)return t>0?i*n/t:0===n&&e>0?i*r/e:0;if(i>=1)return e<1?1+(i-1)*(r-1)/(e-1):1===e&&t<1?1+(i-1)*(n-1)/(t-1):1;for(var u,o=0,a=1;o<a;){var l=w(t,e,u=(o+a)/2);if(p(i,l))break;l<i?o=u:a=u}return w(n,r,u)}}function A(){return 1}function k(t){return 1===t?1:0}function _(){var t=arguments.length>0&&void 0!==arguments[0]?arguments[0]:1,n=arguments.length>1&&void 0!==arguments[1]?arguments[1]:0;if(1===t){if(0===n)return k;if(1===n)return A}var e=1/t;return function(t){return t>=1?1:(t+=n*e)-t%e}}var S=Math.sin,O=Math.cos,j=Math.acos,M=Math.asin,P=Math.tan,E=Math.atan2,I=Math.PI/180,R=180/Math.PI,F=Math.sqrt,N=function(){function t(){var n=arguments.length>0&&void 0!==arguments[0]?arguments[0]:1,e=arguments.length>1&&void 0!==arguments[1]?arguments[1]:0,i=arguments.length>2&&void 0!==arguments[2]?arguments[2]:0,u=arguments.length>3&&void 0!==arguments[3]?arguments[3]:1,o=arguments.length>4&&void 0!==arguments[4]?arguments[4]:0,a=arguments.length>5&&void 0!==arguments[5]?arguments[5]:0;r(this,t),this.m=[n,e,i,u,o,a],this.i=null,this.w=null,this.s=null}return u(t,[{key:"determinant",get:function(){var t=this.m;return t[0]*t[3]-t[1]*t[2]}},{key:"isIdentity",get:function(){if(null===this.i){var t=this.m;this.i=1===t[0]&&0===t[1]&&0===t[2]&&1===t[3]&&0===t[4]&&0===t[5]}return this.i}},{key:"point",value:function(t,n){var e=this.m;return{x:e[0]*t+e[2]*n+e[4],y:e[1]*t+e[3]*n+e[5]}}},{key:"translateSelf",value:function(){var t=arguments.length>0&&void 0!==arguments[0]?arguments[0]:0,n=arguments.length>1&&void 0!==arguments[1]?arguments[1]:0;if(!t&&!n)return this;var e=this.m;return e[4]+=e[0]*t+e[2]*n,e[5]+=e[1]*t+e[3]*n,this.w=this.s=this.i=null,this}},{key:"rotateSelf",value:function(){var t=arguments.length>0&&void 0!==arguments[0]?arguments[0]:0;if(t%=360){var n=S(t*=I),e=O(t),r=this.m,i=r[0],u=r[1];r[0]=i*e+r[2]*n,r[1]=u*e+r[3]*n,r[2]=r[2]*e-i*n,r[3]=r[3]*e-u*n,this.w=this.s=this.i=null}return this}},{key:"scaleSelf",value:function(){var t=arguments.length>0&&void 0!==arguments[0]?arguments[0]:1,n=arguments.length>1&&void 0!==arguments[1]?arguments[1]:1;if(1!==t||1!==n){var e=this.m;e[0]*=t,e[1]*=t,e[2]*=n,e[3]*=n,this.w=this.s=this.i=null}return this}},{key:"skewSelf",value:function(t,n){if(n%=360,(t%=360)||n){var e=this.m,r=e[0],i=e[1],u=e[2],o=e[3];t&&(t=P(t*I),e[2]+=r*t,e[3]+=i*t),n&&(n=P(n*I),e[0]+=u*n,e[1]+=o*n),this.w=this.s=this.i=null}return this}},{key:"resetSelf",value:function(){var t=arguments.length>0&&void 0!==arguments[0]?arguments[0]:1,n=arguments.length>1&&void 0!==arguments[1]?arguments[1]:0,e=arguments.length>2&&void 0!==arguments[2]?arguments[2]:0,r=arguments.length>3&&void 0!==arguments[3]?arguments[3]:1,i=arguments.length>4&&void 0!==arguments[4]?arguments[4]:0,u=arguments.length>5&&void 0!==arguments[5]?arguments[5]:0,o=this.m;return o[0]=t,o[1]=n,o[2]=e,o[3]=r,o[4]=i,o[5]=u,this.w=this.s=this.i=null,this}},{key:"recomposeSelf",value:function(){var t=arguments.length>0&&void 0!==arguments[0]?arguments[0]:null,n=arguments.length>1&&void 0!==arguments[1]?arguments[1]:null,e=arguments.length>2&&void 0!==arguments[2]?arguments[2]:null,r=arguments.length>3&&void 0!==arguments[3]?arguments[3]:null,i=arguments.length>4&&void 0!==arguments[4]?arguments[4]:null;return this.isIdentity||this.resetSelf(),t&&(t.x||t.y)&&this.translateSelf(t.x,t.y),n&&this.rotateSelf(n),e&&(e.x&&this.skewSelf(e.x,0),e.y&&this.skewSelf(0,e.y)),!r||1===r.x&&1===r.y||this.scaleSelf(r.x,r.y),i&&(i.x||i.y)&&this.translateSelf(i.x,i.y),this}},{key:"decompose",value:function(){var t=arguments.length>0&&void 0!==arguments[0]?arguments[0]:0,n=arguments.length>1&&void 0!==arguments[1]?arguments[1]:0,e=this.m,r=e[0]*e[0]+e[1]*e[1],i=[[e[0],e[1]],[e[2],e[3]]],u=F(r);if(0===u)return{origin:{x:d(e[4]),y:d(e[5])},translate:{x:d(t),y:d(n)},scale:{x:0,y:0},skew:{x:0,y:0},rotate:0};i[0][0]/=u,i[0][1]/=u;var o=e[0]*e[3]-e[1]*e[2]<0;o&&(u=-u);var a=i[0][0]*i[1][0]+i[0][1]*i[1][1];i[1][0]-=i[0][0]*a,i[1][1]-=i[0][1]*a;var l=F(i[1][0]*i[1][0]+i[1][1]*i[1][1]);if(0===l)return{origin:{x:d(e[4]),y:d(e[5])},translate:{x:d(t),y:d(n)},scale:{x:d(u),y:0},skew:{x:0,y:0},rotate:0};i[1][0]/=l,i[1][1]/=l,a/=l;var s=0;return i[1][1]<0?(s=j(i[1][1])*R,i[0][1]<0&&(s=360-s)):s=M(i[0][1])*R,o&&(s=-s),a=E(a,F(i[0][0]*i[0][0]+i[0][1]*i[0][1]))*R,o&&(a=-a),{origin:{x:d(e[4]),y:d(e[5])},translate:{x:d(t),y:d(n)},scale:{x:d(u),y:d(l)},skew:{x:d(a),y:0},rotate:d(s)}}},{key:"clone",value:function(){var t=this.m;return new this.constructor(t[0],t[1],t[2],t[3],t[4],t[5])}},{key:"toString",value:function(){var t=arguments.length>0&&void 0!==arguments[0]?arguments[0]:" ";if(null===this.s){var n=this.m.map((function(t){return d(t)}));1===n[0]&&0===n[1]&&0===n[2]&&1===n[3]?this.s="translate("+n[4]+t+n[5]+")":this.s="matrix("+n.join(t)+")"}return this.s}}],[{key:"create",value:function(t){return t?Array.isArray(t)?f(this,v(t)):t instanceof this?t.clone():(new this).recomposeSelf(t.origin,t.rotate,t.skew,t.scale,t.translate):new this}}]),t}();function T(t,n,e){return t>=.5?e:n}function q(t,n,e){return 0===t||n===e?n:t*(e-n)+n}function B(t,n,e){var r=q(t,n,e);return r<=0?0:r}function L(t,n,e){var r=q(t,n,e);return r<=0?0:r>=1?1:r}function C(t,n,e){return 0===t?n:1===t?e:{x:q(t,n.x,e.x),y:q(t,n.y,e.y)}}function D(t,n,e){var r=function(t,n,e){return Math.round(q(t,n,e))}(t,n,e);return r<=0?0:r>=255?255:r}function z(t,n,e){return 0===t?n:1===t?e:{r:D(t,n.r,e.r),g:D(t,n.g,e.g),b:D(t,n.b,e.b),a:q(t,null==n.a?1:n.a,null==e.a?1:e.a)}}function V(t,n){for(var e=[],r=0;r<t;r++)e.push(n);return e}function G(t,n){if(--n<=0)return t;var e=(t=Object.assign([],t)).length;do{for(var r=0;r<e;r++)t.push(t[r])}while(--n>0);return t}var Y,$=function(){function t(n){r(this,t),this.list=n,this.length=n.length}return u(t,[{key:"setAttribute",value:function(t,n){for(var e=this.list,r=0;r<this.length;r++)e[r].setAttribute(t,n)}},{key:"removeAttribute",value:function(t){for(var n=this.list,e=0;e<this.length;e++)n[e].removeAttribute(t)}},{key:"style",value:function(t,n){for(var e=this.list,r=0;r<this.length;r++)e[r].style[t]=n}}]),t}(),U=/-./g,Q=function(t,n){return n.toUpperCase()};function H(t){return"function"==typeof t?t:T}function J(t){return t?"function"==typeof t?t:Array.isArray(t)?function(t){var n=arguments.length>1&&void 0!==arguments[1]?arguments[1]:b;if(!Array.isArray(t))return n;switch(t.length){case 1:return _(t[0])||n;case 2:return _(t[0],t[1])||n;case 4:return x(t[0],t[1],t[2],t[3])||n}return n}(t,null):function(t,n){var e=arguments.length>2&&void 0!==arguments[2]?arguments[2]:b;switch(t){case"linear":return b;case"steps":return _(n.steps||1,n.jump||0)||e;case"bezier":case"cubic-bezier":return x(n.x1||0,n.y1||0,n.x2||0,n.y2||0)||e}return e}(t.type,t.value,null):null}function Z(t,n,e){var r=arguments.length>3&&void 0!==arguments[3]&&arguments[3],i=n.length-1;if(t<=n[0].t)return r?[0,0,n[0].v]:n[0].v;if(t>=n[i].t)return r?[i,1,n[i].v]:n[i].v;var u,o=n[0],a=null;for(u=1;u<=i;u++){if(!(t>n[u].t)){a=n[u];break}o=n[u]}return null==a?r?[i,1,n[i].v]:n[i].v:o.t===a.t?r?[u,1,a.v]:a.v:(t=(t-o.t)/(a.t-o.t),o.e&&(t=o.e(t)),r?[u,t,e(t,o.v,a.v)]:e(t,o.v,a.v))}function K(t,n){var e=arguments.length>2&&void 0!==arguments[2]?arguments[2]:null;return t&&t.length?"function"!=typeof n?null:("function"!=typeof e&&(e=null),function(r){var i=Z(r,t,n);return null!=i&&e&&(i=e(i)),i}):null}function W(t,n){return t.t-n.t}function X(t,n,r,i,u){var o,a="@"===r[0],l="#"===r[0],s=Y[r],f=T;switch(a?(o=r.substr(1),r=o.replace(U,Q)):l&&(r=r.substr(1)),e(s)){case"function":if(f=s(i,u,Z,J,r,a,n,t),l)return f;break;case"string":f=K(i,H(s));break;case"object":if((f=K(i,H(s.i),s.f))&&"function"==typeof s.u)return s.u(n,f,r,a,t)}return f?function(t,n,e){if(arguments.length>3&&void 0!==arguments[3]&&arguments[3])return t instanceof $?function(r){return t.style(n,e(r))}:function(r){return t.style[n]=e(r)};if(Array.isArray(n)){var r=n.length;return function(i){var u=e(i);if(null==u)for(var o=0;o<r;o++)t[o].removeAttribute(n);else for(var a=0;a<r;a++)t[a].setAttribute(n,u)}}return function(r){var i=e(r);null==i?t.removeAttribute(n):t.setAttribute(n,i)}}(n,r,f,a):null}function tt(t,n,r,i){if(!i||"object"!==e(i))return null;var u=null,o=null;return Array.isArray(i)?o=function(t){if(!t||!t.length)return null;for(var n=0;n<t.length;n++)t[n].e&&(t[n].e=J(t[n].e));return t.sort(W)}(i):(o=i.keys,u=i.data||null),o?X(t,n,r,o,u):null}function nt(t,n,e){if(!e)return null;var r=[];for(var i in e)if(e.hasOwnProperty(i)){var u=tt(t,n,i,e[i]);u&&r.push(u)}return r.length?r:null}function et(t,n){if(!n.settings.duration||n.settings.duration<0)return null;var e,r,i,u,o,a=function(t,n){if(!n)return null;var e=[];if(Array.isArray(n))for(var r=n.length,i=0;i<r;i++){var u=n[i];if(2===u.length){var o=null;if("string"==typeof u[0])o=t.getElementById(u[0]);else if(Array.isArray(u[0])){o=[];for(var a=0;a<u[0].length;a++)if("string"==typeof u[0][a]){var l=t.getElementById(u[0][a]);l&&o.push(l)}o=o.length?1===o.length?o[0]:new $(o):null}if(o){var s=nt(t,o,u[1]);s&&(e=e.concat(s))}}}else for(var f in n)if(n.hasOwnProperty(f)){var c=t.getElementById(f);if(c){var h=nt(t,c,n[f]);h&&(e=e.concat(h))}}return e.length?e:null}(t,n.elements);return a?(e=a,r=n.settings,i=r.duration,u=e.length,o=null,function(t,n){var a=r.iterations||1/0,l=(r.alternate&&a%2==0)^r.direction>0?i:0,s=t%i,f=1+(t-s)/i;n*=r.direction,r.alternate&&f%2==0&&(n=-n);var c=!1;if(f>a)s=l,c=!0,-1===r.fill&&(s=r.direction>0?0:i);else if(n<0&&(s=i-s),s===o)return!1;o=s;for(var h=0;h<u;h++)e[h](s);return c}):null}function rt(t,n){if(Y=n,!t||!t.root||!Array.isArray(t.animations))return null;var e=function(t){for(var n=document.getElementsByTagName("svg"),e=0;e<n.length;e++)if(n[e].id===t.root&&!n[e].svgatorAnimation)return n[e].svgatorAnimation=!0,n[e];return null}(t);if(!e)return null;var r=t.animations.map((function(t){return et(e,t)})).filter((function(t){return!!t}));return r.length?{svg:e,animations:r,animationSettings:t.animationSettings,options:t.options||void 0}:null}function it(t){return+("0x"+(t.replace(/[^0-9a-fA-F]+/g,"")||27))}function ut(t,n,e){return!t||!e||n>t.length?t:t.substring(0,n)+ut(t.substring(n+1),e,e)}function ot(t){var n=arguments.length>1&&void 0!==arguments[1]?arguments[1]:27;return!t||t%n?t%n:ot(t/n,n)}function at(t,n,e){if(t&&t.length){var r=it(e),i=it(n),u=ot(r)+5,o=ut(t,ot(r,5),u);return o=o.replace(/\x7c$/g,"==").replace(/\x2f$/g,"="),o=function(t,n,e){var r=+("0x"+t.substring(0,4));t=t.substring(4);for(var i=n%r+e%27,u=[],o=0;o<t.length;o+=2)if("|"!==t[o]){var a=+("0x"+t[o]+t[o+1])-i;u.push(a)}else{var l=+("0x"+t.substring(o+1,o+1+4))-i;o+=3,u.push(l)}return String.fromCharCode.apply(String,u)}(o=(o=atob(o)).replace(/[\x41-\x5A]/g,""),i,r),o=JSON.parse(o)}}var lt=[{key:"alternate",def:!1},{key:"fill",def:1},{key:"iterations",def:0},{key:"direction",def:1},{key:"speed",def:1},{key:"fps",def:100}],st=function(){function t(n,e){var i=this,u=arguments.length>2&&void 0!==arguments[2]?arguments[2]:null;r(this,t),this._id=0,this._running=!1,this._rollingBack=!1,this._animations=n,this._settings=e,(!u||u<"2022-05-02")&&delete this._settings.speed,lt.forEach((function(t){i._settings[t.key]=i._settings[t.key]||t.def})),this.duration=e.duration,this.offset=e.offset||0,this.rollbackStartOffset=0}return u(t,[{key:"alternate",get:function(){return this._settings.alternate}},{key:"fill",get:function(){return this._settings.fill}},{key:"iterations",get:function(){return this._settings.iterations}},{key:"direction",get:function(){return this._settings.direction}},{key:"speed",get:function(){return this._settings.speed}},{key:"fps",get:function(){return this._settings.fps}},{key:"maxFiniteDuration",get:function(){return this.iterations>0?this.iterations*this.duration:this.duration}},{key:"_apply",value:function(t){for(var n=arguments.length>1&&void 0!==arguments[1]?arguments[1]:{},e=this._animations,r=e.length,i=0,u=0;u<r;u++)n[u]?i++:(n[u]=e[u](t,1),n[u]&&i++);return i}},{key:"_rollback",value:function(t){var n=this,e=1/0,r=null;this.rollbackStartOffset=t,this._rollingBack=!0,this._running=!0;this._id=window.requestAnimationFrame((function i(u){if(n._rollingBack){null==r&&(r=u);var o=Math.round(t-(u-r)*n.speed);if(o>n.duration&&e!==1/0){var a=!!n.alternate&&o/n.duration%2>1,l=o%n.duration;o=(l+=a?n.duration:0)||n.duration}var s=(n.fps?1e3/n.fps:0)*n.speed,f=Math.max(0,o);f<=e-s&&(n.offset=f,e=f,n._apply(f));var c=n.iterations>0&&-1===n.fill&&o>=n.maxFiniteDuration;(o<=0||n.offset<o||c)&&n.stop(),n._id=window.requestAnimationFrame(i)}}))}},{key:"_start",value:function(){var t=this,n=arguments.length>0&&void 0!==arguments[0]?arguments[0]:0,e=-1/0,r=null,i={};this._running=!0;var u=function u(o){null==r&&(r=o);var a=Math.round((o-r)*t.speed+n),l=(t.fps?1e3/t.fps:0)*t.speed;if(a>=e+l&&!t._rollingBack&&(t.offset=a,e=a,t._apply(a,i)===t._animations.length))return void t.pause(!0);t._id=window.requestAnimationFrame(u)};this._id=window.requestAnimationFrame(u)}},{key:"_pause",value:function(){this._id&&window.cancelAnimationFrame(this._id),this._running=!1}},{key:"play",value:function(){if(!this._running)return this._rollingBack?this._rollback(this.offset):this._start(this.offset)}},{key:"stop",value:function(){this._pause(),this.offset=0,this.rollbackStartOffset=0,this._rollingBack=!1,this._apply(0)}},{key:"reachedToEnd",value:function(){return this.iterations>0&&this.offset>=this.iterations*this.duration}},{key:"restart",value:function(){var t=arguments.length>0&&void 0!==arguments[0]&&arguments[0];this.stop(t),this.play(t)}},{key:"pause",value:function(){this._pause()}},{key:"reverse",value:function(){this.direction=-this.direction}}],[{key:"build",value:function(t,n){delete t.animationSettings,t.options=at(t.options,t.root,"5c7f360c"),t.animations.map((function(n){n.settings=at(n.s,t.root,"5c7f360c"),delete n.s,t.animationSettings||(t.animationSettings=n.settings)}));var e=t.version;if(!(t=rt(t,n)))return null;var r=t.options||{},i=new this(t.animations,t.animationSettings,e);return{el:t.svg,options:r,player:i}}},{key:"push",value:function(t){return this.build(t)}},{key:"init",value:function(){var t=this,n=window.__SVGATOR_PLAYER__&&window.__SVGATOR_PLAYER__["5c7f360c"];Array.isArray(n)&&n.splice(0).forEach((function(n){return t.build(n)}))}}]),t}();function ft(t){return d(t)+""}function ct(t){var n=arguments.length>1&&void 0!==arguments[1]?arguments[1]:" ";return t&&t.length?t.map(ft).join(n):""}function ht(t){if(!t)return"transparent";if(null==t.a||t.a>=1){var n=function(t){return 1===(t=parseInt(t).toString(16)).length?"0"+t:t},e=function(t){return t.charAt(0)===t.charAt(1)},r=n(t.r),i=n(t.g),u=n(t.b);return e(r)&&e(i)&&e(u)&&(r=r.charAt(0),i=i.charAt(0),u=u.charAt(0)),"#"+r+i+u}return"rgba("+t.r+","+t.g+","+t.b+","+t.a+")"}function vt(t){return t?"url(#"+t+")":"none"}!function(){for(var t=0,n=["ms","moz","webkit","o"],e=0;e<n.length&&!window.requestAnimationFrame;++e)window.requestAnimationFrame=window[n[e]+"RequestAnimationFrame"],window.cancelAnimationFrame=window[n[e]+"CancelAnimationFrame"]||window[n[e]+"CancelRequestAnimationFrame"];window.requestAnimationFrame||(window.requestAnimationFrame=function(n){var e=Date.now(),r=Math.max(0,16-(e-t)),i=window.setTimeout((function(){n(e+r)}),r);return t=e+r,i},window.cancelAnimationFrame=window.clearTimeout)}();var yt={f:null,i:function(t,n,e){return 0===t?n:1===t?e:{x:B(t,n.x,e.x),y:B(t,n.y,e.y)}},u:function(t,n){return function(e){var r=n(e);t.setAttribute("rx",ft(r.x)),t.setAttribute("ry",ft(r.y))}}},gt={f:null,i:function(t,n,e){return 0===t?n:1===t?e:{width:B(t,n.width,e.width),height:B(t,n.height,e.height)}},u:function(t,n){return function(e){var r=n(e);t.setAttribute("width",ft(r.width)),t.setAttribute("height",ft(r.height))}}};Object.freeze({M:2,L:2,Z:0,H:1,V:1,C:6,Q:4,T:2,S:4,A:7});var dt={},pt=null;function mt(t){var n=function(){if(pt)return pt;if("object"!==("undefined"==typeof document?"undefined":e(document))||!document.createElementNS)return{};var t=document.createElementNS("http://www.w3.org/2000/svg","svg");return t&&t.style?(t.style.position="absolute",t.style.opacity="0.01",t.style.zIndex="-9999",t.style.left="-9999px",t.style.width="1px",t.style.height="1px",pt={svg:t}):{}}().svg;if(!n)return function(t){return null};var r=document.createElementNS(n.namespaceURI,"path");r.setAttributeNS(null,"d",t),r.setAttributeNS(null,"fill","none"),r.setAttributeNS(null,"stroke","none"),n.appendChild(r);var i=r.getTotalLength();return function(t){var n=r.getPointAtLength(i*t);return{x:n.x,y:n.y}}}function bt(t){return dt[t]?dt[t]:dt[t]=mt(t)}function wt(t,n,e,r){if(!t||!r)return!1;var i=["M",t.x,t.y];if(n&&e&&(i.push("C"),i.push(n.x),i.push(n.y),i.push(e.x),i.push(e.y)),n?!e:e){var u=n||e;i.push("Q"),i.push(u.x),i.push(u.y)}return n||e||i.push("L"),i.push(r.x),i.push(r.y),i.join(" ")}function xt(t,n,e,r){var i=arguments.length>4&&void 0!==arguments[4]?arguments[4]:1,u=wt(t,n,e,r),o=bt(u);try{return o(i)}catch(t){return null}}function At(t,n,e){return t+(n-t)*e}function kt(t,n,e){var r=arguments.length>3&&void 0!==arguments[3]&&arguments[3],i={x:At(t.x,n.x,e),y:At(t.y,n.y,e)};return r&&(i.a=_t(t,n)),i}function _t(t,n){return Math.atan2(n.y-t.y,n.x-t.x)}function St(t,n,e,r){var i=1-r;return i*i*t+2*i*r*n+r*r*e}function Ot(t,n,e,r){return 2*(1-r)*(n-t)+2*r*(e-n)}function jt(t,n,e,r){var i=arguments.length>4&&void 0!==arguments[4]&&arguments[4],u=xt(t,n,null,e,r);return u||(u={x:St(t.x,n.x,e.x,r),y:St(t.y,n.y,e.y,r)}),i&&(u.a=Mt(t,n,e,r)),u}function Mt(t,n,e,r){return Math.atan2(Ot(t.y,n.y,e.y,r),Ot(t.x,n.x,e.x,r))}function Pt(t,n,e,r,i){var u=i*i;return i*u*(r-t+3*(n-e))+3*u*(t+e-2*n)+3*i*(n-t)+t}function Et(t,n,e,r,i){var u=1-i;return 3*(u*u*(n-t)+2*u*i*(e-n)+i*i*(r-e))}function It(t,n,e,r,i){var u=arguments.length>5&&void 0!==arguments[5]&&arguments[5],o=xt(t,n,e,r,i);return o||(o={x:Pt(t.x,n.x,e.x,r.x,i),y:Pt(t.y,n.y,e.y,r.y,i)}),u&&(o.a=Rt(t,n,e,r,i)),o}function Rt(t,n,e,r,i){return Math.atan2(Et(t.y,n.y,e.y,r.y,i),Et(t.x,n.x,e.x,r.x,i))}function Ft(t,n,e){var r=arguments.length>3&&void 0!==arguments[3]&&arguments[3];if(Tt(n)){if(qt(e))return jt(n,e.start,e,t,r)}else if(Tt(e)){if(Bt(n))return jt(n,n.end,e,t,r)}else{if(Bt(n))return qt(e)?It(n,n.end,e.start,e,t,r):jt(n,n.end,e,t,r);if(qt(e))return jt(n,e.start,e,t,r)}return kt(n,e,t,r)}function Nt(t,n,e){var r=Ft(t,n,e,!0);return r.a=function(t){return arguments.length>1&&void 0!==arguments[1]&&arguments[1]?t+Math.PI:t}(r.a)/m,r}function Tt(t){return!t.type||"corner"===t.type}function qt(t){return null!=t.start&&!Tt(t)}function Bt(t){return null!=t.end&&!Tt(t)}var Lt=new N;var Ct={f:ft,i:q},Dt={f:ft,i:L};function zt(t,n,e){return t.map((function(t){return function(t,n,e){var r=t.v;if(!r||"g"!==r.t||r.s||!r.v||!r.r)return t;var i=e.getElementById(r.r),u=i&&i.querySelectorAll("stop")||[];return r.s=r.v.map((function(t,n){var e=u[n]&&u[n].getAttribute("offset");return{c:t,o:e=d(parseInt(e)/100)}})),delete r.v,t}(t,0,e)}))}var Vt={gt:"gradientTransform",c:{x:"cx",y:"cy"},rd:"r",f:{x:"x1",y:"y1"},to:{x:"x2",y:"y2"}};function Gt(t,n,r,i,u,o,a,l){return zt(t,0,l),n=function(t,n,e){for(var r,i,u,o=t.length-1,a={},l=0;l<=o;l++)(r=t[l]).e&&(r.e=n(r.e)),r.v&&"g"===(i=r.v).t&&i.r&&(u=e.getElementById(i.r))&&(a[i.r]={e:u,s:u.querySelectorAll("stop")});return a}(t,i,l),function(i){var u=r(i,t,Yt);if(!u)return"none";if("c"===u.t)return ht(u.v);if("g"===u.t){if(!n[u.r])return vt(u.r);var o=n[u.r];return function(t,n){for(var e=t.s,r=e.length;r<n.length;r++){var i=e[e.length-1].cloneNode();i.id=Qt(i.id),t.e.appendChild(i),e=t.s=t.e.querySelectorAll("stop")}for(var u=0,o=e.length,a=n.length-1;u<o;u++)e[u].setAttribute("stop-color",ht(n[Math.min(u,a)].c)),e[u].setAttribute("offset",n[Math.min(u,a)].o)}(o,u.s),Object.keys(Vt).forEach((function(t){if(void 0!==u[t])if("object"!==e(Vt[t])){var n,r="gt"===t?(n=u[t],Array.isArray(n)?"matrix("+n.join(" ")+")":""):u[t],i=Vt[t];o.e.setAttribute(i,r)}else Object.keys(Vt[t]).forEach((function(n){if(void 0!==u[t][n]){var e=u[t][n],r=Vt[t][n];o.e.setAttribute(r,e)}}))})),vt(u.r)}return"none"}}function Yt(t,e,r){if(0===t)return e;if(1===t)return r;if(e&&r){var i=e.t;if(i===r.t)switch(e.t){case"c":return{t:i,v:z(t,e.v,r.v)};case"g":if(e.r===r.r){var u={t:i,s:$t(t,e.s,r.s),r:e.r};return e.gt&&r.gt&&(u.gt=function(t,n,e){var r=n.length;if(r!==e.length)return T(t,n,e);for(var i=new Array(r),u=0;u<r;u++)i[u]=q(t,n[u],e[u]);return i}(t,e.gt,r.gt)),e.c?(u.c=C(t,e.c,r.c),u.rd=B(t,e.rd,r.rd)):e.f&&(u.f=C(t,e.f,r.f),u.to=C(t,e.to,r.to)),u}}if("c"===e.t&&"g"===r.t||"c"===r.t&&"g"===e.t){var o="c"===e.t?e:r,a="g"===e.t?n({},e):n({},r),l=a.s.map((function(t){return{c:o.v,o:t.o}}));return a.s="c"===e.t?$t(t,l,a.s):$t(t,a.s,l),a}}return T(t,e,r)}function $t(t,n,e){if(n.length===e.length)return n.map((function(n,r){return Ut(t,n,e[r])}));for(var r=Math.max(n.length,e.length),i=[],u=0;u<r;u++){var o=Ut(t,n[Math.min(u,n.length-1)],e[Math.min(u,e.length-1)]);i.push(o)}return i}function Ut(t,n,e){return{o:L(t,n.o,e.o||0),c:z(t,n.c,e.c||{})}}function Qt(t){return t.replace(/-fill-([0-9]+)$/,(function(t,n){return"-fill-"+(+n+1)}))}var Ht={fill:Gt,"fill-opacity":Dt,stroke:Gt,"stroke-opacity":Dt,"stroke-width":Ct,"stroke-dashoffset":{f:ft,i:q},"stroke-dasharray":{f:function(t){var n=arguments.length>1&&void 0!==arguments[1]?arguments[1]:" ";return t&&t.length>0&&(t=t.map((function(t){return d(t,4)}))),ct(t,n)},i:function(t,n,e){var r,i,u,o=n.length,a=e.length;if(o!==a)if(0===o)n=V(o=a,0);else if(0===a)a=o,e=V(o,0);else{var l=(u=(r=o)*(i=a)/function(t,n){for(var e;n;)e=n,n=t%n,t=e;return t||1}(r,i))<0?-u:u;n=G(n,Math.floor(l/o)),e=G(e,Math.floor(l/a)),o=a=l}for(var s=[],f=0;f<o;f++)s.push(d(B(t,n[f],e[f])));return s}},opacity:Dt,transform:function(t,n,r,i){if(!(t=function(t,n){if(!t||"object"!==e(t))return null;var r=!1;for(var i in t)t.hasOwnProperty(i)&&(t[i]&&t[i].length?(t[i].forEach((function(t){t.e&&(t.e=n(t.e))})),r=!0):delete t[i]);return r?t:null}(t,i)))return null;var u=function(e,i,u){var o=arguments.length>3&&void 0!==arguments[3]?arguments[3]:null;return t[e]?r(i,t[e],u):n&&n[e]?n[e]:o};return n&&n.a&&t.o?function(n){var e=r(n,t.o,Nt);return Lt.recomposeSelf(e,u("r",n,q,0)+e.a,u("k",n,C),u("s",n,C),u("t",n,C)).toString()}:function(t){return Lt.recomposeSelf(u("o",t,Ft,null),u("r",t,q,0),u("k",t,C),u("s",t,C),u("t",t,C)).toString()}},r:Ct,"#size":gt,"#radius":yt,_:function(t,n){if(Array.isArray(t))for(var e=0;e<t.length;e++)this[t[e]]=n;else this[t]=n}},Jt=function(t){!function(t,n){if("function"!=typeof n&&null!==n)throw new TypeError("Super expression must either be null or a function");t.prototype=Object.create(n&&n.prototype,{constructor:{value:t,writable:!0,configurable:!0}}),n&&l(t,n)}(o,t);var n,e,i=(n=o,e=s(),function(){var t,r=a(n);if(e){var i=a(this).constructor;t=Reflect.construct(r,arguments,i)}else t=r.apply(this,arguments);return c(this,t)});function o(){return r(this,o),i.apply(this,arguments)}return u(o,null,[{key:"build",value:function(t){var n=h(a(o),"build",this).call(this,t,Ht);if(!n)return null;n.el,n.options,function(t,n,e){t.play()}(n.player)}}]),o}(st);return Jt.init(),Jt}));
(function(s,i,o,w,a,b){w[o]=w[o]||{};w[o][s]=w[o][s]||[];w[o][s].push(i);})('5c7f360c',{"root":"eowcNDWEPxt1","version":"2022-05-04","animations":[{"elements":{"eowcNDWEPxt3":{"transform":{"data":{"t":{"x":-372.5,"y":-278}},"keys":{"o":[{"t":0,"v":{"x":372.5,"y":276.575,"type":"corner"},"e":[0.42,0,0.58,1]},{"t":1000,"v":{"x":372.5,"y":239.09495,"type":"corner"},"e":[0.42,0,0.58,1]},{"t":2000,"v":{"x":372.5,"y":278,"type":"corner"},"e":[0.42,0,0.58,1]}]}}}},"s":"MNDA1Y2NjWTczYjVjNmBMzYjJOYzViYVZjMGJVmNzM4YjgzODFSODFVGODE3ZFk3M2I1YmFjMK2I2YjRjNWJhYzBiZjBczQjhiODJYN2Q3M2JThYzViNmMzYjJjNWJhGYzBiZmM0NzNEOGI4MQTdkNzNiN2JhYmRiZDSczOGI4MjdkRDczYjJGiZGM1YjZjM2JmYjJjNNWI2NzM4YmM1YzNjNPmI2N2Q3M2M0T2MxYjEZiNmI1NzM4YjgyN2QX3M2I3YzFjNDczOGI4XMjgxODFjZQ|"}],"options":"MIDAxMDg4MmY4MDgxNmCU3ZjgxMmY0NzJmNzkK3Y082ZTcxMmY4YQ|"},'__SVGATOR_PLAYER__',window)
]]></script>
</svg>
